<?xml version="1.0" encoding="utf-8"?>
<!-- Generator: Adobe Illustrator 24.3.0, SVG Export Plug-In . SVG Version: 6.00 Build 0)  -->
<svg version="1.1" id="Layer_1" xmlns="http://www.w3.org/2000/svg" xmlns:xlink="http://www.w3.org/1999/xlink" x="0px" y="0px"
	 viewBox="0 0 50 50" style="enable-background:new 0 0 50 50;" xml:space="preserve">
<style type="text/css">
	.st0{fill:#5D4037;}
</style>
<path class="st0" d="M25,2c-0.7,0-1.4,0.2-2.1,0.5L6.1,12C4.8,12.7,4,14.1,4,15.5v18.9c0,1.5,0.8,2.8,2.1,3.5l16.8,9.5
	c1.3,0.7,2.9,0.7,4.1,0L43.9,38c1.3-0.7,2.1-2.1,2.1-3.5V15.5c0-1.5-0.8-2.8-2.1-3.5L27.1,2.5C26.4,2.2,25.7,2,25,2z M25,4
	c0.4,0,0.8,0.1,1.1,0.3l16.8,9.5c0.7,0.4,1.1,1.1,1.1,1.8v18.9c0,0.7-0.4,1.4-1.1,1.8l-16.8,9.5c-0.7,0.4-1.5,0.4-2.2,0L7.1,36.3
	C6.4,35.9,6,35.2,6,34.5V15.5c0-0.7,0.4-1.4,1.1-1.8l16.8-9.5C24.2,4.1,24.6,4,25,4z M25,12c-7.2,0-13,5.8-13,13s5.8,13,13,13
	c4.1,0,7.9-1.9,10.3-5.1L36,32L30,28.5L29.4,29c-1.1,1.2-2.7,2-4.4,2c-3.3,0-6-2.7-6-6s2.7-6,6-6c1.7,0,3.3,0.7,4.4,2l0.5,0.6L36,18
	l-0.7-0.9C32.9,13.9,29.1,12,25,12z M25,14c3.1,0,5.9,1.3,7.9,3.5l-2.7,1.6C28.8,17.8,27,17,25,17c-4.4,0-8,3.6-8,8s3.6,8,8,8
	c2,0,3.8-0.8,5.2-2.1l2.7,1.6C30.9,34.7,28.1,36,25,36c-6.1,0-11-4.9-11-11S18.9,14,25,14z M35,20v2h-2v2h2v2h-2v2h2v2h2v-2h2v2h2
	v-2h2v-2h-2v-2h2v-2h-2v-2h-2v2h-2v-2H35z M37,24h2v2h-2V24z"/>
<rect x="-88.5" y="-44.8" class="st0" width="42.1" height="37"/>
</svg>
