<?xml version="1.0" encoding="utf-8"?>
<!-- Generator: Adobe Illustrator 24.3.0, SVG Export Plug-In . SVG Version: 6.00 Build 0)  -->
<svg version="1.1" id="Layer_1" xmlns="http://www.w3.org/2000/svg" xmlns:xlink="http://www.w3.org/1999/xlink" x="0px" y="0px"
	 viewBox="0 0 24 24" style="enable-background:new 0 0 24 24;" xml:space="preserve">
<style type="text/css">
	.st0{fill:#6D4C41;}
</style>
<path class="st0" d="M13.4,1C14.5,3.2,9.5,4.5,9,6.4C8.6,8,12,10,12,10c-0.5-0.7-0.9-1.3-1.4-2.3C9.7,5.8,15.8,3.9,13.4,1z M17,4
	c0,0-3.8,0.2-4,2.5c-0.1,1,1,1.6,1,2.3c0,0.6-0.6,1.1-0.6,1.1s1.1-0.2,1.5-1.1c0.4-1-0.7-1.8-0.6-2.6C14.4,5.5,17,4,17,4z M10.2,10
	c0,0-4.2-0.1-4.2,1.1c0,0.6,1.2,0.9,2.8,1c-0.7,0-1.6,0.5-1.6,1c0,1,4.9,1.8,8.5,0.3l-1.3-0.8c-2.5,0.8-7,0.6-5.7-0.5
	c1.9,0.1,4.4,0,6.5-0.4c0,0,0.9-0.5,1.2-0.8c-2.6,0.5-8.2,0.4-8.2-0.1C8.3,10.4,10.2,10,10.2,10z M18.6,10c-0.5,0-1,0.1-1.4,0.5
	c0.9-0.2,1.7,0.4,1.7,1c0,1.5-2.1,2.9-2.1,2.9S20,14,20,11.6C20,10.5,19.4,10,18.6,10z M9.7,14.3c-0.9,0-1.5,0.6-1.5,1.1
	c0,1.4,5.3,1.5,7.5,0l-1.3-0.9C12.8,15.3,8.8,15.4,9.7,14.3z M5.9,16.7c-1.3,0-1.9,0.6-1.9,1.2c0,2.9,14,2.8,14-0.2
	c0-0.5-0.5-0.7-0.7-0.8c1.1,2.9-11.6,2.7-11.6,1c0-0.4,0.7-0.8,1.5-0.6c0,0-0.3-0.4-0.7-0.4C6.3,16.7,6.1,16.7,5.9,16.7z M20,18.7
	c-2.2,2.2-8.3,3.6-13.9,2.2C11.8,23.3,20,21.4,20,18.7z"/>
<rect x="-27.7" y="-11.6" class="st0" width="6.4" height="6.8"/>
</svg>
