<?xml version="1.0" encoding="utf-8"?>
<!-- Generator: Adobe Illustrator 24.3.0, SVG Export Plug-In . SVG Version: 6.00 Build 0)  -->
<svg version="1.1" id="Layer_1" xmlns="http://www.w3.org/2000/svg" xmlns:xlink="http://www.w3.org/1999/xlink" x="0px" y="0px"
	 viewBox="0 0 50 50" style="enable-background:new 0 0 50 50;" xml:space="preserve">
<style type="text/css">
	.st0{fill:#795548;}
</style>
<path class="st0" d="M5.7,7C4.9,7,4.5,7.8,4.8,8.5l8.9,16c0.2,0.3,0.2,0.7,0,1l-8.9,16C4.5,42.2,4.9,43,5.7,43H8h3.4
	c0.4,0,0.7-0.2,0.9-0.5l9.4-17c0.2-0.3,0.2-0.7,0-1l-9.4-17C12.1,7.2,11.8,7,11.4,7H8H5.7z M17,7c-0.8,0-1.2,0.8-0.9,1.5l8.9,16
	c0.2,0.3,0.2,0.7,0,1l-8.9,16C15.8,42.2,16.2,43,17,43h2.3h3.4c0.4,0,0.7-0.2,0.9-0.5L29.4,32l6.3,10.6c0.2,0.3,0.5,0.5,0.9,0.5H40
	h2.3c0.8,0,1.3-0.8,0.9-1.5l-19.5-34C23.4,7.2,23.1,7,22.7,7h0h-3.4H17z M34.2,18c-0.8,0-1.2,0.8-0.9,1.5l2.2,4
	c0.2,0.3,0.5,0.5,0.9,0.5H47c0.6,0,1-0.4,1-1v-4c0-0.6-0.4-1-1-1H34.2z M39.8,28c-0.8,0-1.2,0.8-0.9,1.5l2.2,4
	c0.2,0.3,0.5,0.5,0.9,0.5h5c0.6,0,1-0.4,1-1v-4c0-0.6-0.4-1-1-1H39.8z"/>
<rect x="-79.6" y="-34.2" class="st0" width="30.6" height="25.9"/>
</svg>
